<svg width="260" height="48" viewBox="0 0 260 48" fill="none" xmlns="http://www.w3.org/2000/svg" role="img" aria-label="Captivated">
  <!-- Layered message clouds (back) -->
  <path d="M12 6h22a6 6 0 0 1 6 6v13a6 6 0 0 1-6 6H24l-7 6v-6h-5a6 6 0 0 1-6-6V12a6 6 0 0 1 6-6z" fill="#4FC3E8"/>
  <!-- Message cloud (front) -->
  <path d="M6 12h22a6 6 0 0 1 6 6v13a6 6 0 0 1-6 6H18l-7 6v-6H6a6 6 0 0 1-6-6V18a6 6 0 0 1 6-6z" transform="translate(6 4)" fill="#009CDB"/>
  <!-- Wordmark -->
  <text x="62" y="32" font-family="Arial, Helvetica, sans-serif" font-size="22" font-weight="700" letter-spacing="4" fill="#29272A">CAPTIVATED</text>
</svg>
